HIERARCHY
ROOT base
{
	OFFSET 0.0 0.0 0.0
	CHANNELS 6 Xposition Yposition Zposition Zrotation Yrotation Xrotation
	JOINT root
	{
		OFFSET 0 0 0
		CHANNELS 6 Xposition Yposition Zposition Zrotation Yrotation Xrotation
		JOINT chest
		{
			OFFSET 0 4.72302 0
			CHANNELS 3 Zrotation Yrotation Xrotation
			JOINT neck
			{
				OFFSET 0 4.47788 0
				CHANNELS 3 Zrotation Yrotation Xrotation
				End Site
				{
					OFFSET 0.0 0.0 0.0
				}
			}
			JOINT right_shoulder
			{
				OFFSET -0.481 4.87 3.6622
				CHANNELS 3 Zrotation Yrotation Xrotation
				JOINT right_elbow
				{
					OFFSET 0 -5.49576 0
					CHANNELS 3 Zrotation Yrotation Xrotation
					JOINT right_wrist
					{
						OFFSET 0 -5.17894 0
						CHANNELS 3 Zrotation Yrotation Xrotation
						End Site
						{
							OFFSET 0.0 0.0 0.0
						}
					}
				}
			}
			JOINT left_shoulder
			{
				OFFSET -0.481 4.87 -3.6622
				CHANNELS 3 Zrotation Yrotation Xrotation
				JOINT left_elbow
				{
					OFFSET 0 -5.49576 0
					CHANNELS 3 Zrotation Yrotation Xrotation
					JOINT left_wrist
					{
						OFFSET 0 -5.17894 0
						CHANNELS 3 Zrotation Yrotation Xrotation
						End Site
						{
							OFFSET 0.0 0.0 0.0
						}
					}
				}
			}
		}
		JOINT right_hip
		{
			OFFSET 0 0 1.69774
			CHANNELS 3 Zrotation Yrotation Xrotation
			JOINT right_knee
			{
				OFFSET 0 -8.43092 0
				CHANNELS 3 Zrotation Yrotation Xrotation
				JOINT right_ankle
				{
					OFFSET 0 -8.1974 0
					CHANNELS 3 Zrotation Yrotation Xrotation
					End Site
					{
						OFFSET 0.0 0.0 0.0
					}
				}
			}
		}
		JOINT left_hip
		{
			OFFSET 0 0 -1.69774
			CHANNELS 3 Zrotation Yrotation Xrotation
			JOINT left_knee
			{
				OFFSET 0 -8.43092 0
				CHANNELS 3 Zrotation Yrotation Xrotation
				JOINT left_ankle
				{
					OFFSET 0 -8.1974 0
					CHANNELS 3 Zrotation Yrotation Xrotation
					End Site
					{
						OFFSET 0.0 0.0 0.0
					}
				}
			}
		}
	}
	JOINT red_arrow
	{
		OFFSET 0 0 0
		CHANNELS 3 Zrotation Yrotation Xrotation
		End Site
		{
			OFFSET 0.0 0.0 0.0
		}
	}
	JOINT blue_arrow
	{
		OFFSET 0 0 0
		CHANNELS 3 Zrotation Yrotation Xrotation
		End Site
		{
			OFFSET 0.0 0.0 0.0
		}
	}
}
MOTION
Frames: 10
Frame Time: 0.0333333333333333
583.134229430556 0 -350.908140024543 0 41.1813474364735 0 0 16.1042040944099 0 -16.1092706967048 8.03035533659111 -0.96625388785708 -8.21399816845136 -3.1120306735546 -7.15697329740903 3.84190806370253 1.71894072345126 -0.642661678654408 5.89188170199282 26.1269133495203 -29.0884570188094 80.5283469559897 0 0 0 0 0 -36.9155846595638 4.81846570512237 31.8105272069092 73.5053278853292 0 0 0 0 0 1.17800924960468 -4.54744709933572 -13.8863063428863 -65.4063832656623 0 0 -30.6944684816748 -4.26924159324539 23.7287056939702 49.1019075944732 5.68807376368744 -6.42345206259238 -37.1582303302962 0 0 4.57197262011383 6.70412684557231 4.3391847680074 0 0 0 0 0 0
584.363477575779 0 -352.482789945602 0 41.8698875292574 0 0 15.9590526461601 0 -19.3778694350835 12.3646080834471 -1.90842578399279 -6.55046270775957 -6.17382816932482 -6.05482053330392 1.59957664882402 0.837434719257335 -0.316881810148035 -5.67191888455768 23.1301459312671 -30.3548004374178 73.7943814910041 0 0 0 0 0 -18.5002921626655 -4.18177561690474 33.4551805460957 77.1108071632605 0 0 0 0 0 13.956300546311 -4.86641640996731 -15.2186096163958 -74.6643426855886 0 0 -24.3107414227616 -6.40732169609841 25.4049091644982 49.3862997909583 2.70857136302787 -10.0568290879237 -45.6241951650136 0 0 15.5720893166691 5.70573983043769 7.79019782729709 0 0 0 0 0 0
585.551609176397 0 -353.900513708591 0 42.7433561879264 0 0 16.1224866271019 0 -23.547208000715 15.2812906483259 -4.6710347383239 -4.66519317059856 -9.04167985679109 -2.18413705923445 -2.82677620395718 0.577712821213535 -0.469661321083189 -19.017259896856 19.9855076359893 -33.6767481807905 64.8832044356177 0 0 0 0 0 1.0753857232787 -15.0096288959278 34.9532988547124 80.9097242286757 0 0 0 0 0 32.4575241772144 -2.47447101661339 -15.2240141030023 -82.9296297323019 0 0 -15.3277000857145 -9.01300329909825 25.4708449715057 46.46885042924 0.573503460480816 -9.95628824746571 -45.8883322405964 0 0 22.136714727433 2.0104283474362 7.59948262533286 0 0 0 0 0 0
586.852529656887 0 -355.3811168015 0 43.7366786490547 0 0 16.3606476545334 0 -26.4374858172502 17.0194483567191 -8.03547939512154 -3.9650394410442 -13.2031442278306 3.01013488415573 -7.52128462229252 0.232681829702721 0.202441278285257 -34.1531473945001 17.1264707723194 -37.4562543169344 53.3819820809221 0 0 0 0 0 22.2289768875959 -26.1329787828854 35.4899229004913 85.075477094034 0 0 0 0 0 52.9857230191175 1.5721442742044 -13.5635724654823 -88.1240637281775 0 0 -5.15099811722893 -12.1038183818048 24.5548251388364 39.8801191327458 -2.41151071032501 -7.43587761185319 -41.6702532960066 0 0 26.7895791351347 -1.15135975695812 6.35798292800628 0 0 0 0 0 0
588.359864494205 0 -357.169183206558 0 44.5887685626846 0 0 16.5654127836227 0 -25.3364206774566 14.7032247778024 -10.2936506565306 -6.24517547483876 -16.0725228740871 8.38788769598447 -10.8956221700311 -0.0819594086274378 0.974281583974893 -49.0907467403425 11.1649911562806 -40.9613577121496 46.2240940949104 0 0 0 0 0 44.7906728887781 -35.4648335797262 33.5364856954706 90.0025296744711 0 0 0 0 0 72.088823570089 5.56356510787575 -7.60004667088764 -86.542854444752 0 0 4.45780073004739 -14.9013099512537 23.4790596280866 25.8023343414156 -3.24763650784985 -1.84329499730188 -31.6352983862888 0 0 29.7285289228911 -1.77663159102786 4.9022968451553 0 0 0 0 0 0
590.018364036083 0 -359.193370878696 0 45.1471991251741 0 0 16.5999670028687 0 -22.4856156790796 9.81987583888519 -11.2895682458151 -8.68436858906536 -17.9058062702846 12.6259795963198 -12.7527225244632 0.275384726391247 1.87840687664111 -60.7305814239224 1.98754756219494 -41.8553913003017 44.2816805025126 0 0 0 0 0 63.0968468331689 -40.1589625264606 30.4017045726637 95.5084681078234 0 0 0 0 0 87.5631931248294 6.71734423495299 0.4370330213859 -77.5510401760245 0 0 12.0170752436022 -16.6592745682954 22.3590447718547 9.16415778419492 -1.42876728924607 2.5164594252291 -20.3741998696015 0 0 24.9523728138809 1.1094800778912 4.4621811402052 0 0 0 0 0 0
591.671594187617 0 -361.258214020729 0 45.4706626675195 0 0 16.6782289147377 0 -20.0735797723309 5.77506977543274 -10.9035920174733 -11.1672305520224 -19.3387711207534 14.6896362115154 -12.6775218092855 1.27354179723543 3.1941807191037 -64.8707677498121 -4.97467342836707 -39.8051331567881 46.7624905864259 0 0 0 0 0 69.0543841637867 -40.4141225612943 30.2643463382433 99.4803187328342 0 0 0 0 0 94.6967508385523 5.35322438431293 5.99629988590959 -64.4411614227237 0 0 16.9343543090644 -15.8050775227739 20.1238240528436 -3.15767213887685 1.8192309130156 3.1239636575464 -14.1795367499699 0 0 6.11651295706195 4.00833194905255 3.01969726878768 0 0 0 0 0 0
593.26100512445 0 -363.224816614389 0 45.7066444483116 0 0 16.8848445177078 0 -18.7689941507747 4.24612524346731 -10.1682344781448 -13.8972980751226 -20.6134883325368 15.1836752285886 -10.5203055912123 2.05221252474264 4.4627711469289 -62.0631853147537 -8.04508566437659 -36.6230646811958 52.0901918182921 0 0 0 0 0 64.1546706379932 -38.5678890021468 32.9459915915255 100.622585909249 0 0 0 0 0 93.6246293852055 3.42669235731885 8.2774598776996 -52.7780704148879 0 0 18.8606379609036 -13.1628350461113 17.0479657229538 -9.13812458812808 2.41508401436317 3.04622795760536 -9.88872312090872 0 0 -15.3424310351205 4.19022706647702 -4.16476838248416 0 0 0 0 0 0
594.862188091874 0 -365.172145658731 0 45.9563453951399 0 0 17.1225224733353 0 -17.2424830648725 4.53201181246969 -9.73288058492463 -17.0934953736658 -21.0715370276663 15.4837450857296 -7.07699659459562 2.32924163751454 4.98990065465783 -55.9275103044136 -9.84855093909722 -33.4272985397036 58.3815883458176 0 0 0 0 0 54.2500333941152 -36.2550941534591 36.2289308256525 99.4296592197602 0 0 0 0 0 85.5084348468434 1.7947799471856 8.71938884219372 -42.7948507730384 0 0 18.5611270743797 -11.0305662068656 15.4389896307829 -10.8349426806004 5.22007677525646 4.16218389065353 -9.27406329844187 0 0 -27.4919276337775 1.41742012409737 -10.5074338507207 0 0 0 0 0 0
596.5037835747 0 -367.165573102236 0 46.2285380281658 0 0 17.2270822525024 0 -15.1454703725841 4.99294970746568 -9.02303963372977 -19.0909191942429 -20.3991212104945 14.5345573353676 -3.63417288914408 2.07922522679157 5.16052285773697 -48.4576618035215 -11.4252436537662 -31.1194783577006 64.436837912979 0 0 0 0 0 41.8190371309847 -33.7303989447745 39.0120522270059 96.3580958292488 0 0 0 0 0 73.4910151008611 0.0220547069121153 8.60720945717233 -33.9528840245117 0 0 15.8672600894225 -9.72205374432004 15.2201592492457 -9.3133664348317 6.86706172709598 5.82754696604992 -14.2608151473194 0 0 -32.222153137742 -0.0207979303748479 -12.2972588146589 0 0 0 0 0 0
